# xmcd
#
# Track frame offsets:
# 150
# 14140
# 25362
# 33530
# 47192
# 59932
# 75070
# 84515
# 96465
# 107750
# 119820
# 132030
#
# Disc length: 1928 seconds
#
# Revision: 0
# Processed by: cddbd v1.5.1PL0 Copyright (c) Steve Scherf et al.
# Submitted via: Axialis_AX_CDPlayer 2.6
#
DISCID=a807860c
DTITLE=Willie Nelson - Double CD - Disc 2
DYEAR=1900
DGENRE=
TTITLE0=No Tomorrow In Sight
TTITLE1=Go Away
TTITLE2=Things To Remember
TTITLE3=You'll Always Have Someone
TTITLE4=Any Old Arms Won't Do
TTITLE5=And So Will You My Love
TTITLE6=Right From Wrong
TTITLE7=I'll Stay Around
TTITLE8=Suffer In Silence
TTITLE9=December Day
TTITLE10=I Can't Find The Time
TTITLE11=One Step Beyond
EXTD=
EXTT0=
EXTT1=
EXTT2=
EXTT3=
EXTT4=
EXTT5=
EXTT6=
EXTT7=
EXTT8=
EXTT9=
EXTT10=
EXTT11=
PLAYORDER=
